<?xml version="1.0" encoding="UTF-8"?>
<svg width="160px" height="160px" viewBox="0 0 160 160" version="1.1" xmlns="http://www.w3.org/2000/svg" xmlns:xlink="http://www.w3.org/1999/xlink">
    <title>MalenBlade-logo-dark</title>
    <defs>
        <circle id="path-1" cx="80" cy="80" r="76.6666667"></circle>
    </defs>
    <g id="Tianami,-Duji,-HBCM,-Morandi-L,-SYSU-AI-Lab,-ALP_STUDIO,-Android_MoYu,-YEJY" stroke="none" stroke-width="1" fill="none" fill-rule="evenodd">
        <g id="vip-malen-blade" transform="translate(-1450, -230)">
            <g id="VI" transform="translate(1450, 50)">
                <g id="MalenBlade-logo" transform="translate(0, 180)">
                    <path d="M80,0 C124.18278,0 160,35.81722 160,80 C160,124.18278 124.18278,160 80,160 C35.81722,160 0,124.18278 0,80 C0,35.81722 35.81722,0 80,0 Z M80,6.66666667 C39.4991183,6.66666667 6.66666667,39.4991183 6.66666667,80 C6.66666667,120.500882 39.4991183,153.333333 80,153.333333 C120.500882,153.333333 153.333333,120.500882 153.333333,80 C153.333333,39.4991183 120.500882,6.66666667 80,6.66666667 Z" id="形状结合" fill="#FFFFFF"></path>
                    <circle id="椭圆形-2备份" fill="#2E1F47" cx="80" cy="80" r="73.3333333"></circle>
                    <g id="编组" stroke-width="1">
                        <mask id="mask-2" fill="white">
                            <use xlink:href="#path-1"></use>
                        </mask>
                        <g id="椭圆形-2"></g>
                        <polygon id="路径-44" fill="#FFFFFF" mask="url(#mask-2)" points="46.6660393 110.555135 54.8643554 115.156231 58.7722113 121.435988 49.6979646 147.366977 58.7722113 137.081559 54.8643554 138.784826 63.1303347 122.915967 84.5875572 120.768584 100.917141 124.175117 104.603554 137.569349 98.1140406 142.766496 104.508826 139.777629 106.879497 143.289963 100.449035 156.227777 108.646736 144.194804 117.600419 149.316907 106.700497 139.925258 103.764531 123.967821 111.706957 111.138884 100.381372 120.882996 83.6864067 119.324282 64.3205915 121.08414 56.731859 113.700858 48.986271 109.903723 48.1767734 107.671454 64.2560039 98.427434 70.1814525 98.1580116 70.3364627 106.511338 63.9545952 107.803089 80.0713479 112.245484 96.2477673 107.848608 89.5718726 106.336029 90.0282914 98.2742692 98.00824 98.6697912 115.616043 107.134454 121.080767 121.80383 129.074248 135.995258 129.480842 158.707325 34.9658464 160.385371 30.2552593 140.510852 40.8543879 124.577405"></polygon>
                    </g>
                    <path d="M89.0666667,48.1333333 L87.3333333,107.333333 L80,109.466667 L72.6666667,107.333333 L70.9333333,48.1333333 L80.0666667,56.4 L89.0666667,48.1333333 Z M80,10.9333333 C83.7555363,10.9333333 86.8,13.977797 86.8,17.7333333 C86.8,20.3395286 85.333842,22.6032844 83.1813426,23.7447839 L84.3763333,37.8663333 L86.6666667,37.8666667 L101.733333,40.8 L103.066667,47.2 L90.6666667,44.2666667 L80,53.4666667 L69.3333333,44.2666667 L56.9333333,47.2 L58.2666667,40.8 L73.3333333,37.8666667 L75.7563333,37.8663333 L76.9476619,23.8114365 C74.7249504,22.6930329 73.2,20.3912687 73.2,17.7333333 C73.2,13.977797 76.2444637,10.9333333 80,10.9333333 Z" id="形状结合" fill="#FFFFFF"></path>
                </g>
            </g>
        </g>
    </g>
</svg>